<?xml version="1.0" encoding="utf-8"?>
<!-- Generator: Adobe Illustrator 21.1.0, SVG Export Plug-In . SVG Version: 6.00 Build 0)  -->
<svg version="1.1" id="Capa_1" xmlns="http://www.w3.org/2000/svg" xmlns:xlink="http://www.w3.org/1999/xlink" x="0px" y="0px"
	 viewBox="0 0 50 50" style="enable-background:new 0 0 50 50;" xml:space="preserve">
<style type="text/css">
	.st0{fill:#B2D7EE;}
</style>
<g>
	<g>
		<g>
			<path class="st0" d="M25,1.4C38,1.4,48.6,12,48.6,25S38,48.6,25,48.6S1.4,38,1.4,25S12,1.4,25,1.4 M25,0C11.2,0,0,11.2,0,25
				s11.2,25,25,25s25-11.2,25-25S38.8,0,25,0L25,0z"/>
		</g>
	</g>
	<g>
		<g>
			<path class="st0" d="M25.1,9.4c-1.4,0-2.6,1.2-2.6,2.6s1.2,2.6,2.6,2.6s2.6-1.2,2.6-2.6S26.5,9.4,25.1,9.4L25.1,9.4z M25.1,13.5
				c-0.9,0-1.5-0.7-1.5-1.5c0-0.9,0.7-1.5,1.5-1.5c0.9,0,1.5,0.7,1.5,1.5S26,13.5,25.1,13.5L25.1,13.5z"/>
		</g>
		<g>
			<path class="st0" d="M25.1,6c-3.3,0-5.9,2.7-5.9,5.9c0,3.3,2.7,5.9,5.9,5.9c3.3,0,5.9-2.7,5.9-5.9l0,0c0-0.3-0.2-0.5-0.5-0.5
				S30,11.6,30,11.9l0,0c0,2.7-2.2,4.9-4.9,4.9s-4.9-2.2-4.9-4.9S22.4,7,25.1,7c0.3,0,0.5-0.2,0.5-0.5C25.6,6.3,25.4,6,25.1,6
				L25.1,6z"/>
		</g>
		<g>
			<path class="st0" d="M25.1,7.7c-2.4,0-4.3,1.9-4.3,4.3s1.9,4.3,4.3,4.3l0,0c0.3,0,0.5-0.2,0.5-0.5c0-0.3-0.2-0.5-0.5-0.5l0,0
				c-1.8,0-3.2-1.5-3.2-3.2c0-1.8,1.4-3.2,3.2-3.2c1.8,0,3.2,1.4,3.2,3.2l0,0c0,0.3,0.2,0.5,0.5,0.5s0.5-0.2,0.5-0.5l0,0
				C29.4,9.6,27.5,7.7,25.1,7.7L25.1,7.7z"/>
		</g>
	</g>
	<g>
		<g>
			<path class="st0" d="M5,27.5c-1.6,0-2.7-1.1-2.7-2.5c0-1.5,1.1-2.5,2.7-2.5c0.6,0,1.1,0.2,1.5,0.4l-0.3,1
				c-0.4-0.2-0.8-0.3-1.2-0.3c-0.9,0-1.5,0.6-1.5,1.5s0.6,1.5,1.5,1.5c0.4,0,0.9-0.1,1.2-0.4l0.3,1C6.2,27.4,5.6,27.5,5,27.5z"/>
		</g>
		<g>
			<path class="st0" d="M10.1,27.5c-1.5,0-2.5-1.1-2.5-2.5s1-2.5,2.5-2.5s2.5,1.1,2.5,2.5S11.6,27.5,10.1,27.5z M10.1,23.5
				c-0.8,0-1.3,0.6-1.3,1.5s0.5,1.5,1.3,1.5s1.3-0.6,1.3-1.5C11.4,24.1,10.9,23.5,10.1,23.5z"/>
		</g>
		<g>
			<path class="st0" d="M18.2,27.5l-2.9-2.6v2.6h-1.1v-5h0.2l2.9,2.6v-2.5h1.1v5L18.2,27.5z"/>
		</g>
		<g>
			<path class="st0" d="M21,23.6v1.1h1.7v1H21v1.8h-1.1v-4.9H23v1H21z"/>
		</g>
		<g>
			<path class="st0" d="M24.3,27.4v-4.9h1.1v4.9H24.3z"/>
		</g>
		<g>
			<path class="st0" d="M30.1,27.4l-0.4-0.9H28l-0.4,0.9h-1.2l2.3-4.9H29l2.3,4.9H30.1z M28.9,24.5l-0.5,1.2h1L28.9,24.5z"/>
		</g>
		<g>
			<path class="st0" d="M36.5,27.5l-2.9-2.6v2.6h-1.1v-5h0.2l2.9,2.6v-2.5h1.1v5L36.5,27.5z"/>
		</g>
		<g>
			<path class="st0" d="M39.6,26.4h2.3v1h-4.1v-0.1l2.4-3.7H38v-1h4v0.1L39.6,26.4z"/>
		</g>
		<g>
			<path class="st0" d="M46.4,27.4L46,26.5h-1.7L44,27.4h-1.2l2.3-4.9h0.2l2.3,4.9H46.4z M45.2,24.5l-0.5,1.2h1L45.2,24.5z"/>
		</g>
	</g>
	<g>
		<path class="st0" d="M10.2,32.1c-1.6,0-2.9,1.3-2.9,3s1.2,3,2.9,3c1.6,0,2.9-1.3,2.9-3C13.1,33.4,11.8,32.1,10.2,32.1z M10.2,32.9
			c1.2,0,2,0.9,2,2.2s-0.9,2.2-2,2.2s-2-0.9-2-2.2C8.2,33.8,9,32.9,10.2,32.9z"/>
		<polygon class="st0" points="19.2,32.2 19.2,36.3 15.9,32.1 15.5,32.2 15.5,38 16.3,38 16.3,33.8 19.7,38.1 20,38 20,32.2 		"/>
		<polygon class="st0" points="23.5,37.2 23.5,32.2 22.7,32.2 22.7,38 26.2,38 26.2,37.2 		"/>
		<rect x="28.3" y="32.2" class="st0" width="0.8" height="5.8"/>
		<polygon class="st0" points="35.5,32.2 35.5,36.3 32.2,32.1 31.8,32.2 31.8,38 32.6,38 32.6,33.8 35.9,38.1 36.3,38 36.3,32.2 		
			"/>
		<polygon class="st0" points="42.4,32.9 42.4,32.2 39,32.2 39,38 42.4,38 42.4,37.2 39.8,37.2 39.8,35.4 42.2,35.4 42.2,34.7 
			39.8,34.7 39.8,32.9 		"/>
	</g>
</g>
</svg>
